<svg preserveAspectRatio="none" overflow="visible" style="display: block;" width="65.208" height="65.208" viewBox="0 0 65.208 65.208" fill="none" xmlns="http://www.w3.org/2000/svg">
<g id="conveyor_belt">
<mask id="mask0_0_144" style="mask-type:alpha" maskUnits="userSpaceOnUse" x="0" y="0" width="66" height="66">
<rect id="Bounding box" width="65.208" height="65.208" fill="#D9D9D9"/>
</mask>
<g mask="url(#mask0_0_144)">
<path id="conveyor_belt_2" d="M13.585 54.34C11.6867 54.34 10.0801 53.6825 8.76504 52.3675C7.45001 51.0524 6.7925 49.4458 6.7925 47.5475C6.7925 45.6492 7.45001 44.0426 8.76504 42.7275C10.0801 41.4125 11.6867 40.755 13.585 40.755H51.623C53.5213 40.755 55.1279 41.4125 56.443 42.7275C57.758 44.0426 58.4155 45.6492 58.4155 47.5475C58.4155 49.4458 57.758 51.0524 56.443 52.3675C55.1279 53.6825 53.5213 54.34 51.623 54.34H13.585ZM13.585 50.2645H51.623C52.3928 50.2645 53.0381 50.0041 53.5589 49.4834C54.0796 48.9626 54.34 48.3173 54.34 47.5475C54.34 46.7777 54.0796 46.1324 53.5589 45.6116C53.0381 45.0909 52.3928 44.8305 51.623 44.8305H13.585C12.8152 44.8305 12.1699 45.0909 11.6491 45.6116C11.1284 46.1324 10.868 46.7777 10.868 47.5475C10.868 48.3173 11.1284 48.9626 11.6491 49.4834C12.1699 50.0041 12.8152 50.2645 13.585 50.2645ZM29.563 35.321C28.8702 35.321 28.2894 35.0867 27.8207 34.618C27.352 34.1493 27.1177 33.5685 27.1177 32.8757V13.3133C27.1177 12.6205 27.352 12.0397 27.8207 11.571C28.2894 11.1023 28.8702 10.868 29.563 10.868H49.1261C49.8189 10.868 50.3994 11.1023 50.8677 11.571C51.3364 12.0397 51.5707 12.6205 51.5707 13.3133V32.8764C51.5707 33.5692 51.3364 34.1497 50.8677 34.618C50.399 35.0867 49.8182 35.321 49.1254 35.321H29.563ZM31.1932 31.2455H47.4952V14.9435H31.1932V31.2455ZM6.7925 30.4827V26.5329H21.5587V30.4827H6.7925ZM33.9102 22.4153H44.7782V18.3819H33.9102V22.4153ZM12.2265 22.4153H21.5587V18.3819H12.2265V22.4153Z" fill="#CBAC8D"/>
</g>
</g>
</svg>
